<svg width="26" height="21" viewBox="0 0 26 21" fill="none" xmlns="http://www.w3.org/2000/svg">
<path d="M0.740929 12.6788H4.63243C13.8355 21.8259 12.2395 20.2395 12.4308 20.4296C12.7198 20.7166 13.1861 20.7167 13.4752 20.4296L13.4762 20.4286L13.4785 20.4264C23.1588 10.808 22.7279 11.2808 23.1627 10.6873H25.2591C25.6682 10.6873 26 10.3555 26 9.94632C26 9.53718 25.6682 9.2054 25.2591 9.2054H23.9756C24.8964 6.84961 24.4058 4.07195 22.5016 2.16776C19.9341 -0.399781 15.7784 -0.399559 13.2113 2.16776L12.953 2.42597L12.6948 2.16776C10.1335 -0.393631 5.96588 -0.393483 3.40442 2.16776C0.922086 4.65009 0.840287 8.61606 3.15747 11.1969H0.740929C0.331788 11.1969 0 11.5287 0 11.9378C0 12.3469 0.331714 12.6788 0.740929 12.6788ZM12.9557 18.857C12.9557 18.857 12.9557 18.857 12.9558 18.8569C12.9557 18.857 12.9556 18.8571 12.9554 18.8573C12.9553 18.8574 12.9551 18.8576 12.9549 18.8578C12.955 18.8577 12.9551 18.8576 12.9551 18.8576C12.9542 18.8584 12.9537 18.859 12.9534 18.8593C12.9534 18.8593 12.9534 18.8593 12.9534 18.8593C12.9533 18.8594 12.9532 18.8595 12.953 18.8597C12.8061 18.7137 8.40843 14.3426 6.73452 12.6788H8.96998C9.32318 12.6788 9.62726 12.4295 9.69653 12.0832L10.1833 9.64936L12.2593 15.1854C12.3733 15.4891 12.676 15.6904 13.0128 15.6637C13.3426 15.637 13.6147 15.3949 13.6796 15.0704L14.5563 10.6873H21.1752C13.6628 18.1541 12.9991 18.8138 12.9557 18.857ZM4.45224 10.4104C3.49126 9.44946 2.96208 8.17187 2.96208 6.81294C2.96208 3.9897 5.24837 1.72794 8.0496 1.72794C9.35237 1.72794 10.6551 2.22385 11.647 3.21565L12.4291 3.99778C12.7185 4.28696 13.1876 4.28711 13.4769 3.99778L14.2592 3.21565C16.2475 1.22722 19.4656 1.22745 21.4539 3.21565C23.0771 4.83881 23.3744 7.28135 22.3475 9.20547H13.9488C13.5956 9.20547 13.2915 9.45472 13.2222 9.8011L12.7355 12.2349L10.6594 6.69891C10.5432 6.38913 10.2363 6.19397 9.90599 6.22057C9.57621 6.24724 9.30406 6.48937 9.23916 6.81383L8.36249 11.1969H5.24363C4.98808 10.9429 4.7249 10.6814 4.45224 10.4104Z" fill="#F38660"/>
</svg>
